# xmcd CD database file
#
# Track frame offsets:
#	150
#	12597
#	25442
#	40367
#	61333
#	71178
#	86277
#	102070
#	115464
#	125475
#	146373
#	160710
#
# Disc length: 2427 seconds
#
# Revision: 0
# Processed by: cddbd v1.4PL0 Copyright (c) Steve Scherf et al.
# Submitted via: CDex 1.50beta10
#
DISCID=a209790c
DTITLE=Wine, Wine, Wine - Everything's Gonna Be Alright
DYEAR=2000
DGENRE=Blues
TTITLE0=You Know That You Love Me
TTITLE1=Everything's Gonna Be Alright
TTITLE2=Dance With Me
TTITLE3=Every Night About This Time
TTITLE4=I'm A Love You
TTITLE5=I Wish You Were Mine
TTITLE6=Just Can't Please You
TTITLE7=Wake Up Screaming
TTITLE8=Everywhere You Go
TTITLE9=If You Ever Need Me
TTITLE10=Travelin' Mood
TTITLE11=Tip Jar
EXTD=YEAR: 2000
EXTT0=
EXTT1=
EXTT2=
EXTT3=
EXTT4=
EXTT5=
EXTT6=
EXTT7=
EXTT8=
EXTT9=
EXTT10=
EXTT11=
PLAYORDER=
